<svg width="16" height="8" viewBox="0 0 16 8" fill="none" xmlns="http://www.w3.org/2000/svg">
<path d="M15.0159 4.5C15.292 4.5 15.5159 4.27614 15.5159 4C15.5159 3.72386 15.292 3.5 15.0159 3.5L15.0159 4.5ZM0.630577 3.64645C0.435315 3.84171 0.435315 4.15829 0.630578 4.35355L3.81256 7.53553C4.00782 7.7308 4.3244 7.7308 4.51967 7.53553C4.71493 7.34027 4.71493 7.02369 4.51967 6.82843L1.69124 4L4.51966 1.17157C4.71493 0.97631 4.71493 0.659728 4.51966 0.464466C4.3244 0.269204 4.00782 0.269204 3.81256 0.464466L0.630577 3.64645ZM15.0159 3.5L0.984131 3.5L0.984131 4.5L15.0159 4.5L15.0159 3.5Z" fill="#7D8186"/>
</svg>
