<svg width="25" height="24" viewBox="0 0 25 24" fill="none" xmlns="http://www.w3.org/2000/svg">
<path d="M7.5 5.99976C6.94803 6.00007 6.50031 5.55287 6.5 5.0009C6.5 5.00052 6.5 5.00014 6.5 4.99976V2.99976C6.5 2.44748 6.94772 1.99976 7.5 1.99976C8.05228 1.99976 8.5 2.44748 8.5 2.99976V4.99976C8.50031 5.55173 8.05311 5.99945 7.50114 5.99976C7.50076 5.99976 7.50038 5.99976 7.5 5.99976ZM17.5 5.99976C16.948 6.00007 16.5003 5.55287 16.5 5.0009C16.5 5.00052 16.5 5.00014 16.5 4.99976V2.99976C16.5 2.44748 16.9477 1.99976 17.5 1.99976C18.0523 1.99976 18.5 2.44748 18.5 2.99976V4.99976C18.5003 5.55173 18.0531 5.99945 17.5011 5.99976C17.5008 5.99976 17.5004 5.99976 17.5 5.99976Z" fill="#7D8186"/>
<path d="M19.5 4.00024H18.5V4.99976C18.5 5.55204 18.0523 5.99976 17.5 5.99976C16.9477 5.99976 16.5 5.55204 16.5 4.99976V4.00024H8.5V4.99976C8.5 5.55204 8.05228 5.99976 7.5 5.99976C6.94772 5.99976 6.5 5.55204 6.5 4.99976V4.00024H5.5C3.84315 4.00024 2.5 5.34339 2.5 7.00024V9.00024H22.5V7.00024C22.5 5.34339 21.1569 4.00024 19.5 4.00024Z" fill="#7D8186"/>
<path d="M7.5 14C8.05228 14 8.5 13.5523 8.5 13C8.5 12.4477 8.05228 12 7.5 12C6.94772 12 6.5 12.4477 6.5 13C6.5 13.5523 6.94772 14 7.5 14Z" fill="#7D8186"/>
<path d="M7.5 18C8.05228 18 8.5 17.5523 8.5 17C8.5 16.4477 8.05228 16 7.5 16C6.94772 16 6.5 16.4477 6.5 17C6.5 17.5523 6.94772 18 7.5 18Z" fill="#7D8186"/>
<path d="M12.5 14C13.0523 14 13.5 13.5523 13.5 13C13.5 12.4477 13.0523 12 12.5 12C11.9477 12 11.5 12.4477 11.5 13C11.5 13.5523 11.9477 14 12.5 14Z" fill="#7D8186"/>
<path d="M12.5 18C13.0523 18 13.5 17.5523 13.5 17C13.5 16.4477 13.0523 16 12.5 16C11.9477 16 11.5 16.4477 11.5 17C11.5 17.5523 11.9477 18 12.5 18Z" fill="#7D8186"/>
<path d="M17.5 14C18.0523 14 18.5 13.5523 18.5 13C18.5 12.4477 18.0523 12 17.5 12C16.9477 12 16.5 12.4477 16.5 13C16.5 13.5523 16.9477 14 17.5 14Z" fill="#7D8186"/>
<path d="M17.5 18C18.0523 18 18.5 17.5523 18.5 17C18.5 16.4477 18.0523 16 17.5 16C16.9477 16 16.5 16.4477 16.5 17C16.5 17.5523 16.9477 18 17.5 18Z" fill="#7D8186"/>
<path opacity="0.4" d="M2.5 9.00024V19.0002C2.5 20.6571 3.84315 22.0002 5.5 22.0002H19.5C21.1569 22.0002 22.5 20.6571 22.5 19.0002V9.00024H2.5ZM7.5 18.0002C6.94772 18.0002 6.5 17.5525 6.5 17.0002C6.5 16.448 6.94772 16.0002 7.5 16.0002C8.05228 16.0002 8.5 16.448 8.5 17.0002C8.5 17.5525 8.05228 18.0002 7.5 18.0002ZM7.5 14.0002C6.94772 14.0002 6.5 13.5525 6.5 13.0002C6.5 12.448 6.94772 12.0002 7.5 12.0002C8.05228 12.0002 8.5 12.448 8.5 13.0002C8.5 13.5525 8.05228 14.0002 7.5 14.0002ZM12.5 18.0002C11.9477 18.0002 11.5 17.5525 11.5 17.0002C11.5 16.448 11.9477 16.0002 12.5 16.0002C13.0523 16.0002 13.5 16.448 13.5 17.0002C13.5 17.5525 13.0523 18.0002 12.5 18.0002ZM12.5 14.0002C11.9477 14.0002 11.5 13.5525 11.5 13.0002C11.5 12.448 11.9477 12.0002 12.5 12.0002C13.0523 12.0002 13.5 12.448 13.5 13.0002C13.5 13.5525 13.0523 14.0002 12.5 14.0002ZM17.5 18.0002C16.9477 18.0002 16.5 17.5525 16.5 17.0002C16.5 16.448 16.9477 16.0002 17.5 16.0002C18.0523 16.0002 18.5 16.448 18.5 17.0002C18.5 17.5525 18.0523 18.0002 17.5 18.0002ZM17.5 14.0002C16.9477 14.0002 16.5 13.5525 16.5 13.0002C16.5 12.448 16.9477 12.0002 17.5 12.0002C18.0523 12.0002 18.5 12.448 18.5 13.0002C18.5 13.5525 18.0523 14.0002 17.5 14.0002Z" fill="#7D8186"/>
</svg>
