<svg width="24" height="24" viewBox="0 0 24 24" fill="none" xmlns="http://www.w3.org/2000/svg">
<path opacity="0.4" d="M12 21.9978C17.5228 21.9978 22 17.5207 22 11.9978C22 6.47496 17.5228 1.9978 12 1.9978C6.47715 1.9978 2 6.47496 2 11.9978C2 17.5207 6.47715 21.9978 12 21.9978Z" fill="#FF0066"/>
<path d="M12 16.9978C12.5523 16.9978 13 16.5501 13 15.9978C13 15.4455 12.5523 14.9978 12 14.9978C11.4477 14.9978 11 15.4455 11 15.9978C11 16.5501 11.4477 16.9978 12 16.9978Z" fill="#FF0066"/>
<path d="M12 12.9978C11.7348 12.9978 11.4804 12.8924 11.2929 12.7049C11.1054 12.5174 11 12.263 11 11.9978V7.9978C11 7.73259 11.1054 7.47823 11.2929 7.2907C11.4804 7.10316 11.7348 6.9978 12 6.9978C12.2652 6.9978 12.5196 7.10316 12.7071 7.2907C12.8946 7.47823 13 7.73259 13 7.9978V11.9978C13 12.263 12.8946 12.5174 12.7071 12.7049C12.5196 12.8924 12.2652 12.9978 12 12.9978Z" fill="#FF0066"/>
</svg>
