<svg width="25" height="24" viewBox="0 0 25 24" fill="none" xmlns="http://www.w3.org/2000/svg">
<path opacity="0.6" d="M13 14.5H12C11.7348 14.5 11.4804 14.3946 11.2929 14.2071C11.1054 14.0196 11 13.7652 11 13.5C11 13.2348 11.1054 12.9804 11.2929 12.7929C11.4804 12.6054 11.7348 12.5 12 12.5H13C13.2652 12.5 13.5196 12.6054 13.7071 12.7929C13.8946 12.9804 14 13.2348 14 13.5C14 13.7652 13.8946 14.0196 13.7071 14.2071C13.5196 14.3946 13.2652 14.5 13 14.5ZM13 18.5H12C11.7348 18.5 11.4804 18.3946 11.2929 18.2071C11.1054 18.0196 11 17.7652 11 17.5C11 17.2348 11.1054 16.9804 11.2929 16.7929C11.4804 16.6054 11.7348 16.5 12 16.5H13C13.2652 16.5 13.5196 16.6054 13.7071 16.7929C13.8946 16.9804 14 17.2348 14 17.5C14 17.7652 13.8946 18.0196 13.7071 18.2071C13.5196 18.3946 13.2652 18.5 13 18.5ZM8 14.5H7C6.73478 14.5 6.48043 14.3946 6.29289 14.2071C6.10536 14.0196 6 13.7652 6 13.5C6 13.2348 6.10536 12.9804 6.29289 12.7929C6.48043 12.6054 6.73478 12.5 7 12.5H8C8.26522 12.5 8.51957 12.6054 8.70711 12.7929C8.89464 12.9804 9 13.2348 9 13.5C9 13.7652 8.89464 14.0196 8.70711 14.2071C8.51957 14.3946 8.26522 14.5 8 14.5ZM8 18.5H7C6.73478 18.5 6.48043 18.3946 6.29289 18.2071C6.10536 18.0196 6 17.7652 6 17.5C6 17.2348 6.10536 16.9804 6.29289 16.7929C6.48043 16.6054 6.73478 16.5 7 16.5H8C8.26522 16.5 8.51957 16.6054 8.70711 16.7929C8.89464 16.9804 9 17.2348 9 17.5C9 17.7652 8.89464 18.0196 8.70711 18.2071C8.51957 18.3946 8.26522 18.5 8 18.5ZM18 14.5H17C16.7348 14.5 16.4804 14.3946 16.2929 14.2071C16.1054 14.0196 16 13.7652 16 13.5C16 13.2348 16.1054 12.9804 16.2929 12.7929C16.4804 12.6054 16.7348 12.5 17 12.5H18C18.2652 12.5 18.5196 12.6054 18.7071 12.7929C18.8946 12.9804 19 13.2348 19 13.5C19 13.7652 18.8946 14.0196 18.7071 14.2071C18.5196 14.3946 18.2652 14.5 18 14.5ZM18 18.5H17C16.7348 18.5 16.4804 18.3946 16.2929 18.2071C16.1054 18.0196 16 17.7652 16 17.5C16 17.2348 16.1054 16.9804 16.2929 16.7929C16.4804 16.6054 16.7348 16.5 17 16.5H18C18.2652 16.5 18.5196 16.6054 18.7071 16.7929C18.8946 16.9804 19 17.2348 19 17.5C19 17.7652 18.8946 18.0196 18.7071 18.2071C18.5196 18.3946 18.2652 18.5 18 18.5Z" fill="#7D8186"/>
<path d="M14 7H13.5V6.5C13.5 6.23478 13.3946 5.98043 13.2071 5.79289C13.0196 5.60536 12.7652 5.5 12.5 5.5C12.2348 5.5 11.9804 5.60536 11.7929 5.79289C11.6054 5.98043 11.5 6.23478 11.5 6.5V7H11C10.7348 7 10.4804 7.10536 10.2929 7.29289C10.1054 7.48043 10 7.73478 10 8C10 8.26522 10.1054 8.51957 10.2929 8.70711C10.4804 8.89464 10.7348 9 11 9H11.5V9.5C11.5 9.76522 11.6054 10.0196 11.7929 10.2071C11.9804 10.3946 12.2348 10.5 12.5 10.5C12.7652 10.5 13.0196 10.3946 13.2071 10.2071C13.3946 10.0196 13.5 9.76522 13.5 9.5V9H14C14.2652 9 14.5196 8.89464 14.7071 8.70711C14.8946 8.51957 15 8.26522 15 8C15 7.73478 14.8946 7.48043 14.7071 7.29289C14.5196 7.10536 14.2652 7 14 7Z" fill="#7D8186"/>
<path opacity="0.4" d="M22 6.5H19V2.5C19 2.36867 18.9742 2.23862 18.9239 2.11728C18.8737 1.99594 18.8 1.88568 18.7072 1.79282C18.6143 1.69995 18.5041 1.62629 18.3827 1.57605C18.2614 1.52581 18.1313 1.49997 18 1.5H7C6.86867 1.49997 6.73862 1.52581 6.61728 1.57605C6.49593 1.62629 6.38568 1.69995 6.29282 1.79282C6.19995 1.88568 6.12629 1.99594 6.07605 2.11728C6.02581 2.23862 5.99997 2.36867 6 2.5V6.5H3C2.86867 6.49997 2.73862 6.52581 2.61728 6.57605C2.49594 6.62629 2.38568 6.69995 2.29282 6.79282C2.19995 6.88568 2.12629 6.99593 2.07605 7.11728C2.02581 7.23862 1.99997 7.36867 2 7.5V21.5C1.99997 21.6313 2.02581 21.7614 2.07605 21.8827C2.12629 22.0041 2.19995 22.1143 2.29282 22.2072C2.38568 22.3 2.49594 22.3737 2.61728 22.4239C2.73862 22.4742 2.86867 22.5 3 22.5H22C22.1313 22.5 22.2614 22.4742 22.3827 22.4239C22.5041 22.3737 22.6143 22.3 22.7072 22.2072C22.8 22.1143 22.8737 22.0041 22.9239 21.8827C22.9742 21.7614 23 21.6313 23 21.5V7.5C23 7.36867 22.9742 7.23862 22.9239 7.11728C22.8737 6.99593 22.8 6.88568 22.7072 6.79282C22.6143 6.69995 22.5041 6.62629 22.3827 6.57605C22.2614 6.52581 22.1313 6.49997 22 6.5ZM8 18.5H7C6.73478 18.5 6.48043 18.3946 6.29289 18.2071C6.10536 18.0196 6 17.7652 6 17.5C6 17.2348 6.10536 16.9804 6.29289 16.7929C6.48043 16.6054 6.73478 16.5 7 16.5H8C8.26522 16.5 8.51957 16.6054 8.70711 16.7929C8.89464 16.9804 9 17.2348 9 17.5C9 17.7652 8.89464 18.0196 8.70711 18.2071C8.51957 18.3946 8.26522 18.5 8 18.5ZM8 14.5H7C6.73478 14.5 6.48043 14.3946 6.29289 14.2071C6.10536 14.0196 6 13.7652 6 13.5C6 13.2348 6.10536 12.9804 6.29289 12.7929C6.48043 12.6054 6.73478 12.5 7 12.5H8C8.26522 12.5 8.51957 12.6054 8.70711 12.7929C8.89464 12.9804 9 13.2348 9 13.5C9 13.7652 8.89464 14.0196 8.70711 14.2071C8.51957 14.3946 8.26522 14.5 8 14.5ZM13 18.5H12C11.7348 18.5 11.4804 18.3946 11.2929 18.2071C11.1054 18.0196 11 17.7652 11 17.5C11 17.2348 11.1054 16.9804 11.2929 16.7929C11.4804 16.6054 11.7348 16.5 12 16.5H13C13.2652 16.5 13.5196 16.6054 13.7071 16.7929C13.8946 16.9804 14 17.2348 14 17.5C14 17.7652 13.8946 18.0196 13.7071 18.2071C13.5196 18.3946 13.2652 18.5 13 18.5ZM13 14.5H12C11.7348 14.5 11.4804 14.3946 11.2929 14.2071C11.1054 14.0196 11 13.7652 11 13.5C11 13.2348 11.1054 12.9804 11.2929 12.7929C11.4804 12.6054 11.7348 12.5 12 12.5H13C13.2652 12.5 13.5196 12.6054 13.7071 12.7929C13.8946 12.9804 14 13.2348 14 13.5C14 13.7652 13.8946 14.0196 13.7071 14.2071C13.5196 14.3946 13.2652 14.5 13 14.5ZM14 9H13.5V9.5C13.5 9.76522 13.3946 10.0196 13.2071 10.2071C13.0196 10.3946 12.7652 10.5 12.5 10.5C12.2348 10.5 11.9804 10.3946 11.7929 10.2071C11.6054 10.0196 11.5 9.76522 11.5 9.5V9H11C10.7348 9 10.4804 8.89464 10.2929 8.70711C10.1054 8.51957 10 8.26522 10 8C10 7.73478 10.1054 7.48043 10.2929 7.29289C10.4804 7.10536 10.7348 7 11 7H11.5V6.5C11.5 6.23478 11.6054 5.98043 11.7929 5.79289C11.9804 5.60536 12.2348 5.5 12.5 5.5C12.7652 5.5 13.0196 5.60536 13.2071 5.79289C13.3946 5.98043 13.5 6.23478 13.5 6.5V7H14C14.2652 7 14.5196 7.10536 14.7071 7.29289C14.8946 7.48043 15 7.73478 15 8C15 8.26522 14.8946 8.51957 14.7071 8.70711C14.5196 8.89464 14.2652 9 14 9ZM18 18.5H17C16.7348 18.5 16.4804 18.3946 16.2929 18.2071C16.1054 18.0196 16 17.7652 16 17.5C16 17.2348 16.1054 16.9804 16.2929 16.7929C16.4804 16.6054 16.7348 16.5 17 16.5H18C18.2652 16.5 18.5196 16.6054 18.7071 16.7929C18.8946 16.9804 19 17.2348 19 17.5C19 17.7652 18.8946 18.0196 18.7071 18.2071C18.5196 18.3946 18.2652 18.5 18 18.5ZM18 14.5H17C16.7348 14.5 16.4804 14.3946 16.2929 14.2071C16.1054 14.0196 16 13.7652 16 13.5C16 13.2348 16.1054 12.9804 16.2929 12.7929C16.4804 12.6054 16.7348 12.5 17 12.5H18C18.2652 12.5 18.5196 12.6054 18.7071 12.7929C18.8946 12.9804 19 13.2348 19 13.5C19 13.7652 18.8946 14.0196 18.7071 14.2071C18.5196 14.3946 18.2652 14.5 18 14.5Z" fill="#7D8186"/>
</svg>
