<svg width="20" height="20" viewBox="0 0 20 20" fill="none" xmlns="http://www.w3.org/2000/svg">
<path d="M9.47442 0.0116024C5.32029 0.278553 1.86866 2.87781 0.533902 6.74158C0.163917 7.81875 0 8.82098 0 10.0059C0 10.8629 0.0562002 11.4062 0.229484 12.1977C1.04439 15.9022 3.9949 18.8902 7.67133 19.7379C9.17469 20.0844 10.8045 20.0844 12.3078 19.7379C15.5956 18.9792 18.3306 16.5017 19.4453 13.2749C19.8153 12.193 19.9792 11.1954 19.9792 10.0059C19.9792 9.14882 19.923 8.60555 19.7497 7.81406C18.9207 4.05802 15.9374 1.07472 12.1814 0.24577C11.3524 0.063118 10.2097 -0.0352325 9.47442 0.0116024ZM12.0409 3.48196C12.1486 3.54285 12.2985 3.68335 12.3687 3.78638C12.4764 3.95498 12.4952 4.02523 12.4952 4.33902C12.4952 4.6528 12.4811 4.71837 12.3687 4.88229C12.2985 4.98064 12.1627 5.11645 12.0643 5.18202C11.9191 5.28037 11.8395 5.29911 11.5351 5.29911C11.2213 5.29911 11.1511 5.28037 10.9825 5.17266C10.7061 4.98532 10.5375 4.67622 10.5375 4.3437C10.5375 3.54753 11.3478 3.08388 12.0409 3.48196ZM10.6921 6.61513C11.2588 6.74626 11.6194 7.05536 11.6615 7.44408C11.6803 7.60331 11.5023 8.32455 10.8139 10.9004C10.3315 12.6894 9.92871 14.2958 9.90997 14.4691C9.87719 14.8625 9.97554 15.1716 10.1769 15.2746C10.3924 15.387 10.8092 15.3589 11.24 15.2091C11.61 15.0826 11.6241 15.0779 11.5726 15.1763C11.4602 15.3824 10.7764 16.0006 10.4017 16.23C9.89592 16.5438 9.51657 16.6609 9.00609 16.6656C8.03663 16.675 7.33881 16.1317 7.50273 15.4948C7.52615 15.4011 7.91955 13.9305 8.37852 12.2305C9.06229 9.67336 9.21215 9.0692 9.23089 8.73668C9.2543 8.27772 9.17937 8.05292 8.9733 7.94052C8.77192 7.8328 8.33168 7.87027 7.89613 8.02482L7.5121 8.16532L7.61045 8.02482C7.765 7.80938 8.16308 7.42066 8.44408 7.20991C9.23089 6.62449 9.93807 6.43716 10.6921 6.61513Z" fill="#C4C7CC"/>
</svg>
