<svg width="25" height="24" viewBox="0 0 25 24" fill="none" xmlns="http://www.w3.org/2000/svg">
<path opacity="0.4" d="M12.5 14.1953C12.3245 14.1953 12.1521 14.1491 12 14.0615L3.00004 8.86426C2.52165 8.58794 2.35783 7.97612 2.63415 7.49773C2.72191 7.34579 2.8481 7.2196 3.00004 7.13184L12 1.93848C12.3097 1.76074 12.6904 1.76074 13 1.93848L22 7.13184C22.4784 7.40816 22.6423 8.01998 22.3659 8.49837C22.2782 8.65031 22.152 8.7765 22 8.86426L13 14.0615C12.848 14.1491 12.6756 14.1953 12.5 14.1953Z" fill="#7D8186"/>
<path opacity="0.6" d="M22 11.1318L20.0359 9.99847L13 14.0615C12.6906 14.2399 12.3095 14.2399 12 14.0615L4.96415 9.99847L3.00004 11.1318C2.52165 11.4082 2.35783 12.02 2.63415 12.4984C2.72191 12.6503 2.8481 12.7765 3.00004 12.8643L12 18.0615C12.3095 18.2399 12.6906 18.2399 13 18.0615L22 12.8643C22.4784 12.5879 22.6423 11.9761 22.3659 11.4977C22.2782 11.3458 22.152 11.2196 22 11.1318Z" fill="#7D8186"/>
<path d="M22 15.1318L20.0359 13.9985L13 18.0615C12.6906 18.2399 12.3095 18.2399 12 18.0615L4.96415 13.9985L3.00004 15.1318C2.52165 15.4082 2.35783 16.02 2.63415 16.4984C2.72191 16.6503 2.8481 16.7765 3.00004 16.8643L12 22.0615C12.3095 22.2399 12.6906 22.2399 13 22.0615L22 16.8643C22.4784 16.5879 22.6423 15.9761 22.3659 15.4977C22.2782 15.3458 22.152 15.2196 22 15.1318Z" fill="#7D8186"/>
</svg>
