<svg width="25" height="24" viewBox="0 0 25 24" fill="none" xmlns="http://www.w3.org/2000/svg">
<path d="M18.4985 8.06429L6.50271 8.109L6.22564 4.78353C6.13673 4.02559 6.33999 3.26226 6.79405 2.6489C7.2481 2.03554 7.91883 1.61826 8.6697 1.482L9.45905 1.33871C11.4714 0.973505 13.533 0.973729 15.5452 1.33937L16.3311 1.48217C17.0819 1.61858 17.7524 2.03589 18.2063 2.6492C18.6602 3.26251 18.8634 4.02572 18.7745 4.78353L18.4985 8.06429Z" fill="#7D8186"/>
<path opacity="0.4" d="M6.50891 8.10901C6.55317 9.67262 7.2069 11.157 8.33055 12.2452C9.4542 13.3334 10.9587 13.9393 12.523 13.9334C14.0872 13.9276 15.5871 13.3105 16.7026 12.2139C17.8181 11.1174 18.4608 9.62816 18.4934 8.06427L6.50891 8.10901Z" fill="#7D8186"/>
<path d="M17.6981 13.3847V13.3848L13.2071 17.8758C13.1143 17.9687 13.0041 18.0423 12.8828 18.0926C12.7614 18.1429 12.6314 18.1687 12.5001 18.1687C12.3688 18.1687 12.2387 18.1429 12.1174 18.0926C11.9961 18.0423 11.8859 17.9687 11.7931 17.8758L7.30206 13.3848V13.3847C5.9936 14.1771 4.88557 15.2607 4.06415 16.5511C3.24274 17.8416 2.73008 19.3041 2.56606 20.825C2.55085 20.9647 2.56523 21.1059 2.60825 21.2396C2.65128 21.3734 2.72199 21.4965 2.81578 21.6011C2.90956 21.7056 3.02433 21.7893 3.15259 21.8465C3.28085 21.9038 3.41974 21.9334 3.5602 21.9334H21.44C21.5805 21.9334 21.7193 21.9038 21.8476 21.8465C21.9759 21.7893 22.0906 21.7056 22.1844 21.6011C22.2782 21.4965 22.3489 21.3734 22.3919 21.2396C22.435 21.1059 22.4493 20.9647 22.4341 20.825C22.2701 19.3041 21.7575 17.8416 20.936 16.5511C20.1146 15.2607 19.0066 14.1771 17.6981 13.3847Z" fill="#7D8186"/>
<path opacity="0.6" d="M16.1907 12.6541C15.1354 13.4748 13.8366 13.9204 12.4997 13.9204C11.1628 13.9204 9.864 13.4748 8.80871 12.6539C8.28693 12.855 7.78293 13.0995 7.302 13.3848L11.793 17.8758C11.8858 17.9687 11.9961 18.0423 12.1174 18.0926C12.2387 18.1429 12.3687 18.1687 12.5 18.1687C12.6313 18.1687 12.7614 18.1429 12.8827 18.0926C13.004 18.0423 13.1142 17.9687 13.2071 17.8758L17.6981 13.3848C17.217 13.0994 16.7129 12.8549 16.1911 12.6538L16.1907 12.6541Z" fill="#7D8186"/>
</svg>
